<svg id="Layer_1" data-name="Layer 1" xmlns="http://www.w3.org/2000/svg" viewBox="0 0 172.59 62.67"><defs><style>.cls-1{fill:#f8af48;}.cls-2{fill:#f8ae48;}.cls-3{fill:#f8af4a;}.cls-4{fill:#f8b04b;}.cls-5{fill:#f9bb65;}.cls-6{fill:#f9be6c;}.cls-7{fill:#f9c070;}.cls-8{fill:#f9bd68;}</style></defs><title>Gandhi Logo</title><g id="Layer_2" data-name="Layer 2"><g id="Layer_1-2" data-name="Layer 1-2"><path class="cls-1" d="M123.56,17.83c0-5.36.1-10.37,0-15.35C123.45.47,124.26.1,126,0c2.1-.13,1.79,1.17,1.79,2.41,0,14,0,28,.05,42,0,2.06-.68,2.79-2.63,3.17a56.08,56.08,0,0,1-12,1c-7-.19-11.66-4.19-12.64-11.14a24.78,24.78,0,0,1,.33-9.35c2.4-9.86,11.94-14.71,21.24-10.77Zm0,14.87V26.8c0-6.91-.46-7.34-7.59-7a13.47,13.47,0,0,0-2.9.42c-6,1.66-9.31,7.39-8.49,14.85.76,7,3.94,9.78,10.92,9.71,1.88,0,3.76-.15,5.63-.15s2.56-.6,2.47-2.56c-.15-3.11,0-6.25,0-9.38Z" transform="translate(0.01 0.02)"/><path class="cls-2" d="M32,37.39a53.85,53.85,0,0,0,0,5.65c.24,2.3-.64,3.41-2.85,4-5.62,1.42-11.25,2.15-17,.93-4.64-1-8.17-3.76-9.73-8.09C-1.33,29.18-1.27,18.65,6.17,9.37c6-7.46,16.94-7.46,23.36-4.27,1,.48,2.56.77,1.64,2.7s-1.84.95-3,.48C17.51,3.9,8.23,8.57,5.52,19.79a32,32,0,0,0,.1,15.94c1.54,5.81,5.6,9.2,11.56,9.36a48,48,0,0,0,9-.87c1.64-.27,2-1,2-2.52,0-3.77.12-7.53.07-11.3,0-1.52.48-2,2-2s1.76.72,1.73,2C32,32.72,32,35.06,32,37.39Z" transform="translate(0.01 0.02)"/><path class="cls-2" d="M139.09,19.72c4.16-2.86,8.08-4,12.47-3.63,5.17.48,8.16,3.56,8.17,8.74V46.08c0,1.59-.2,2.43-2.14,2.41s-1.92-1-1.92-2.36c0-6.39,0-12.73,0-19.09,0-5.12-2.06-7.2-7.16-7.22a15.55,15.55,0,0,0-2.68.18c-6.31,1.07-6.78,1.64-6.78,8,0,6.09-.07,12.19,0,18.29,0,1.85-.64,2.19-2.33,2.23-1.86,0-2-.84-2-2.29,0-14.61.06-29.22,0-43.83,0-2.1,1-2.24,2.56-2.35,1.92-.13,1.71,1,1.71,2.23C139.09,7.85,139.09,13.47,139.09,19.72Z" transform="translate(0.01 0.02)"/><path class="cls-1" d="M62.27,35.49V46.25c0,.78.48,2.12-.91,2.08-1.11,0-2.85,1.09-3.29-1.07-.32-1.56-1.23-.82-2-.64-3.64.91-7.19,2.23-11,1.89-4.14-.37-6.55-2.3-7.15-6-.64-3.93.9-6.67,4.85-8.17s8.38-1.79,12.66-2.08c2-.13,2.66-.71,2.79-2.86.6-9.68-4.11-10.41-11.51-9.23A21.58,21.58,0,0,0,41.06,22c-.95.43-1.65.56-2-.73-.24-.86-.82-1.62.43-2.21,5.22-2.43,10.58-4,16.36-2.51,4.25,1.14,6.39,4,6.39,8.4C62.32,28.48,62.27,32,62.27,35.49ZM58,39v-3.2c0-.84-.25-1.48-1.21-1.28-4.28.77-8.72.92-12.79,2.76a4,4,0,0,0-2.37,4.4c.17,2.07,1.45,3.1,3.33,3.7,2.51.79,5,.16,7.44-.12,5.25-.64,5.64-1.1,5.63-6.27Z" transform="translate(0.01 0.02)"/><path class="cls-2" d="M73.26,19.49c3.64-2.56,7.34-3.84,11.58-3.4,5.19.51,8.2,3.56,8.22,8.73,0,7.08,0,14.17,0,21.25,0,1.62-.25,2.42-2.17,2.4S89,47.49,89,46.11c0-6.46,0-12.92,0-19.37,0-4.76-2.08-6.84-6.9-6.93a15,15,0,0,0-2.95.18c-5.68,1-6.2,1.68-6.2,7.4,0,6.28,0,12.56,0,18.84,0,1.5-.2,2.27-2,2.24s-2.31-.47-2.3-2.26c.08-9.15.1-18.3,0-27.44,0-2.09.56-2.71,2.65-2.83,2.64-.15,1.28,1.69,1.68,2.67A2.39,2.39,0,0,1,73.26,19.49Z" transform="translate(0.01 0.02)"/><path class="cls-3" d="M167.67,32c0-4.66.08-9.32,0-14-.05-1.87.93-1.92,2.3-2,1.59-.13,2,.5,2,2,0,9.5-.07,19,0,28.49,0,1.85-.82,2-2.28,2s-2.06-.37-2-1.92C167.73,41.68,167.67,36.84,167.67,32Z" transform="translate(0.01 0.02)"/><path class="cls-4" d="M172.59,4.32c-.08,2.12-1.13,3.07-2.88,3.12C167.78,7.49,167,6.28,167,4.5s.88-2.92,2.76-2.87A2.67,2.67,0,0,1,172.59,4.32Z" transform="translate(0.01 0.02)"/><path class="cls-2" d="M131.68,53.66c-1.21,1.09-3.52-.36-3.45,2.33s2.22,1,3.14,1.87c-.88.91-3.2-.54-3.15,2.1.06,3.06,2.78,1,3.7,2.17a1.52,1.52,0,0,1-.47.22c-4.1.36-4.1.35-4.1-3.72V56.77C127.34,52.9,127.34,52.9,131.68,53.66Z" transform="translate(0.01 0.02)"/><path class="cls-5" d="M156.76,59.3c-.39-.17-.79-.37-1.19-.53-1.46-.58-2.22-1.6-1.59-3.13a2.56,2.56,0,0,1,3.19-1.7h0c1.75.46,2.21,1.76,1.81,3.33-.6,2.39-2.26,3.88-4.85,5.17C154.87,60.87,156.38,60.6,156.76,59.3Zm-.55-4.48a1.38,1.38,0,0,0-1.36,1.59c0,1.23.8,1.66,1.92,1.69s1.28-.73,1.28-1.59c.05-1.06-.36-1.71-1.84-1.69Z" transform="translate(0.01 0.02)"/><path class="cls-5" d="M166.44,62.65c.84-1.75,2.24-2,2.63-3.2-.31-.64-1-.54-1.53-.84a2.19,2.19,0,0,1-1.23-2.89,2.69,2.69,0,0,1,3.2-1.81,2.31,2.31,0,0,1,2,2.56v.16C171.17,59.45,169.26,61,166.44,62.65Zm4-6c.08-1.07-.26-1.8-1.43-1.82-1,0-1.75.38-1.76,1.51s.7,1.71,1.85,1.77,1.36-.59,1.34-1.46Z" transform="translate(0.01 0.02)"/><path class="cls-6" d="M133,62.15c1-.94,1.48-.33,2-.5s1.34-.14,1.37-1c0-.64-.57-.82-1.06-1-1.12-.51-2.61-.9-1.92-2.56s2.14-1,3.43-1.1c0,1.24-.76.71-1.16.84s-1.15.13-1.23.8.51.84,1,1.08c1.08.53,2.69.89,1.87,2.56S134.88,62.5,133,62.15Z" transform="translate(0.01 0.02)"/><path class="cls-7" d="M161.24,62.11c.64-1.59,1.28-3.2,2-4.76s1-2.93-1.53-2.6a1.21,1.21,0,0,1-1.34-.64c1.28-.64,2.56-.27,3.75-.33.81,0,1.21.52.95,1.21-.95,2.49-2,4.95-3,7.42Z" transform="translate(0.01 0.02)"/><path class="cls-8" d="M141.32,62.28c-2,.28-2.47-.64-2.64-1.92s.18-2.49-.31-3.71a1.34,1.34,0,0,1,.64-1.59c.72-.41.84.64,1.35.93,1.34.77-.25.6-.42.9C139.27,58.11,139.85,60.92,141.32,62.28Z" transform="translate(0.01 0.02)"/><path class="cls-3" d="M150.91,62.06V56.5c0-.59.17-1.24-.54-1.66-.33-.19-1.15.45-.94-.48.05-.23.77-.36,1.2-.45.7-.13,1,.31,1,.93V62Z" transform="translate(0.01 0.02)"/></g></g></svg>